<?xml version="1.0" encoding="UTF-8"?>
<svg xmlns="http://www.w3.org/2000/svg" xmlns:xlink="http://www.w3.org/1999/xlink" width="24px" height="24px" viewBox="0 0 24 24" version="1.1">
<g id="surface1">
<path style=" stroke:none;fill-rule:nonzero;fill:rgb(0%,0%,0%);fill-opacity:1;" d="M 6.765625 9.515625 C 6.738281 10.578125 7.164062 11.046875 7.171875 11.347656 C 7.164062 11.46875 7.105469 11.578125 7.019531 11.640625 L 6.539062 12.058594 C 6.476562 12.113281 6.402344 12.144531 6.328125 12.152344 C 6.3125 12.148438 6.019531 12.234375 5.558594 10.949219 C 4.992188 11.839844 4.125 12.347656 3.210938 12.332031 C 2.601562 12.371094 0.949219 11.898438 1.03125 9.695312 C 0.972656 7.902344 2.308594 6.785156 3.691406 6.878906 C 3.957031 6.882812 4.503906 6.898438 5.453125 7.175781 L 5.453125 6.441406 C 5.554688 5.203125 4.902344 4.238281 3.773438 4.382812 C 3.683594 4.382812 3.046875 4.359375 2.054688 4.859375 C 1.78125 5.015625 1.742188 4.992188 1.652344 4.992188 C 1.375 4.992188 1.488281 3.984375 1.542969 3.855469 C 1.738281 3.554688 2.886719 2.996094 4.015625 3.003906 C 4.769531 2.921875 5.519531 3.210938 6.101562 3.8125 C 6.582031 4.484375 6.820312 5.371094 6.765625 6.269531 Z M 3.523438 11.035156 C 4.742188 11.011719 5.253906 10.097656 5.371094 9.605469 C 5.464844 9.136719 5.449219 8.835938 5.449219 8.320312 C 5.085938 8.214844 4.566406 8.09375 3.964844 8.09375 C 3.398438 8.039062 2.359375 8.355469 2.402344 9.605469 C 2.355469 10.394531 2.816406 11.078125 3.523438 11.035156 Z M 9.933594 12.113281 C 9.640625 12.148438 9.503906 11.886719 9.457031 11.628906 L 7.589844 3.910156 C 7.554688 3.78125 7.53125 3.644531 7.519531 3.507812 C 7.503906 3.390625 7.570312 3.28125 7.664062 3.261719 C 7.671875 3.261719 7.585938 3.261719 8.5 3.261719 C 8.828125 3.222656 8.933594 3.546875 8.96875 3.75 L 10.308594 10.351562 L 11.550781 3.75 C 11.570312 3.597656 11.664062 3.230469 12.03125 3.269531 L 12.675781 3.269531 C 12.757812 3.261719 13.09375 3.246094 13.152344 3.753906 L 14.402344 10.441406 L 15.785156 3.753906 C 15.804688 3.652344 15.890625 3.222656 16.261719 3.269531 L 17 3.269531 C 17.035156 3.261719 17.230469 3.230469 17.199219 3.671875 C 17.183594 3.757812 17.328125 3.171875 15.21875 11.636719 C 15.175781 11.894531 15.039062 12.15625 14.746094 12.121094 L 14.042969 12.121094 C 13.632812 12.175781 13.574219 11.667969 13.570312 11.617188 L 12.324219 5.1875 L 11.097656 11.609375 C 11.089844 11.660156 11.03125 12.167969 10.621094 12.113281 Z M 20.191406 12.378906 C 19.96875 12.378906 18.917969 12.363281 18.039062 11.800781 C 17.859375 11.707031 17.742188 11.488281 17.746094 11.246094 L 17.746094 10.742188 C 17.746094 10.34375 17.976562 10.417969 18.078125 10.464844 C 18.453125 10.65625 18.695312 10.800781 19.15625 10.914062 C 20.53125 11.265625 21.136719 10.804688 21.285156 10.703125 C 21.777344 10.339844 21.816406 9.5 21.480469 9.066406 C 21.089844 8.652344 20.902344 8.636719 19.488281 8.082031 C 19.316406 8.019531 17.851562 7.445312 17.847656 5.628906 C 17.824219 4.304688 18.785156 2.992188 20.453125 3.003906 C 20.929688 3.003906 22.195312 3.199219 22.539062 3.738281 C 22.589844 3.835938 22.613281 3.949219 22.609375 4.066406 L 22.609375 4.539062 C 22.609375 4.75 22.546875 4.851562 22.425781 4.851562 C 22.136719 4.8125 21.625 4.328125 20.582031 4.347656 C 20.324219 4.332031 19.085938 4.390625 19.144531 5.519531 C 19.125 6.410156 20.140625 6.742188 20.257812 6.78125 C 21.625 7.292969 22.082031 7.378906 22.625 8.167969 C 23.265625 9.210938 22.921875 10.429688 22.785156 10.765625 C 22.070312 12.523438 20.222656 12.378906 20.191406 12.378906 Z M 21.695312 17.292969 C 19.070312 19.71875 15.257812 21.007812 12.003906 21.007812 C 7.613281 21.046875 3.367188 19.027344 0.105469 15.351562 C -0.140625 15.074219 0.078125 14.695312 0.375 14.90625 C 3.992188 17.492188 8.089844 18.851562 12.257812 18.847656 C 15.371094 18.828125 18.449219 18.039062 21.316406 16.527344 C 21.757812 16.292969 22.132812 16.890625 21.695312 17.292969 Z M 22.792969 15.734375 C 22.457031 15.195312 20.570312 15.480469 19.722656 15.609375 C 19.46875 15.644531 19.425781 15.367188 19.65625 15.164062 C 21.160156 13.84375 23.628906 14.222656 23.910156 14.664062 C 24.195312 15.109375 23.832031 18.199219 22.425781 19.675781 C 22.210938 19.90625 22.003906 19.785156 22.101562 19.484375 C 22.417969 18.488281 23.128906 16.273438 22.792969 15.734375 Z M 22.792969 15.734375 "/>
</g>
</svg>
