<?xml version="1.0" encoding="UTF-8"?>
<svg xmlns="http://www.w3.org/2000/svg" xmlns:xlink="http://www.w3.org/1999/xlink" width="24px" height="24px" viewBox="0 0 24 24" version="1.1">
<g id="surface1">
<path style=" stroke:none;fill-rule:nonzero;fill:rgb(0%,0%,0%);fill-opacity:1;" d="M 21.804688 10.242188 C 21.75 10.199219 21.242188 9.816406 20.175781 9.816406 C 19.894531 9.816406 19.613281 9.84375 19.335938 9.890625 C 19.128906 8.472656 17.957031 7.78125 17.902344 7.75 L 17.617188 7.585938 L 17.429688 7.859375 C 17.191406 8.222656 17.019531 8.625 16.917969 9.050781 C 16.726562 9.859375 16.84375 10.617188 17.253906 11.269531 C 16.757812 11.542969 15.960938 11.613281 15.800781 11.617188 L 2.625 11.617188 C 2.28125 11.617188 2.003906 11.898438 2 12.242188 C 1.984375 13.394531 2.179688 14.542969 2.578125 15.625 C 3.03125 16.816406 3.707031 17.691406 4.585938 18.230469 C 5.570312 18.832031 7.167969 19.175781 8.980469 19.175781 C 9.800781 19.179688 10.617188 19.105469 11.421875 18.953125 C 12.539062 18.75 13.617188 18.359375 14.609375 17.796875 C 15.421875 17.324219 16.15625 16.722656 16.78125 16.019531 C 17.824219 14.835938 18.449219 13.519531 18.910156 12.351562 L 19.09375 12.351562 C 20.238281 12.351562 20.941406 11.894531 21.328125 11.511719 C 21.585938 11.265625 21.785156 10.96875 21.914062 10.636719 L 22 10.398438 Z M 21.804688 10.242188 "/>
<path style=" stroke:none;fill-rule:nonzero;fill:rgb(0%,0%,0%);fill-opacity:1;" d="M 3.847656 11.230469 L 5.613281 11.230469 C 5.695312 11.230469 5.765625 11.160156 5.765625 11.078125 L 5.765625 9.503906 C 5.765625 9.421875 5.699219 9.351562 5.613281 9.351562 L 3.847656 9.351562 C 3.761719 9.351562 3.691406 9.417969 3.691406 9.503906 L 3.691406 11.078125 C 3.691406 11.160156 3.761719 11.230469 3.847656 11.230469 M 6.28125 11.230469 L 8.046875 11.230469 C 8.128906 11.230469 8.199219 11.160156 8.199219 11.078125 L 8.199219 9.503906 C 8.199219 9.464844 8.183594 9.425781 8.15625 9.394531 C 8.125 9.367188 8.085938 9.351562 8.046875 9.351562 L 6.28125 9.351562 C 6.238281 9.351562 6.199219 9.367188 6.171875 9.394531 C 6.140625 9.425781 6.125 9.464844 6.125 9.503906 L 6.125 11.078125 C 6.125 11.160156 6.195312 11.230469 6.28125 11.230469 M 8.75 11.230469 L 10.515625 11.230469 C 10.601562 11.230469 10.667969 11.160156 10.667969 11.078125 L 10.667969 9.503906 C 10.667969 9.421875 10.601562 9.351562 10.515625 9.351562 L 8.75 9.351562 C 8.664062 9.351562 8.597656 9.417969 8.597656 9.503906 L 8.597656 11.078125 C 8.597656 11.160156 8.664062 11.230469 8.75 11.230469 M 11.191406 11.230469 L 12.953125 11.230469 C 13.039062 11.230469 13.109375 11.164062 13.109375 11.078125 L 13.109375 9.503906 C 13.109375 9.464844 13.09375 9.425781 13.066406 9.394531 C 13.035156 9.367188 12.996094 9.351562 12.953125 9.351562 L 11.191406 9.351562 C 11.105469 9.351562 11.035156 9.417969 11.035156 9.503906 L 11.035156 11.078125 C 11.035156 11.160156 11.105469 11.230469 11.191406 11.230469 M 6.28125 8.96875 L 8.046875 8.96875 C 8.128906 8.96875 8.199219 8.898438 8.199219 8.8125 L 8.199219 7.242188 C 8.199219 7.15625 8.128906 7.089844 8.046875 7.089844 L 6.28125 7.089844 C 6.195312 7.089844 6.125 7.15625 6.125 7.242188 L 6.125 8.816406 C 6.125 8.898438 6.195312 8.96875 6.28125 8.96875 M 8.75 8.96875 L 10.515625 8.96875 C 10.601562 8.96875 10.667969 8.898438 10.667969 8.8125 L 10.667969 7.242188 C 10.667969 7.15625 10.601562 7.089844 10.515625 7.089844 L 8.75 7.089844 C 8.664062 7.089844 8.597656 7.15625 8.597656 7.242188 L 8.597656 8.816406 C 8.597656 8.898438 8.664062 8.96875 8.75 8.96875 M 11.191406 8.96875 L 12.953125 8.96875 C 13.039062 8.96875 13.109375 8.898438 13.109375 8.8125 L 13.109375 7.242188 C 13.109375 7.15625 13.039062 7.089844 12.953125 7.089844 L 11.191406 7.089844 C 11.105469 7.089844 11.035156 7.15625 11.035156 7.242188 L 11.035156 8.816406 C 11.035156 8.898438 11.105469 8.96875 11.191406 8.96875 M 11.191406 6.707031 L 12.953125 6.707031 C 13.039062 6.707031 13.109375 6.636719 13.109375 6.550781 L 13.109375 4.976562 C 13.109375 4.894531 13.039062 4.824219 12.953125 4.824219 L 11.191406 4.824219 C 11.105469 4.824219 11.035156 4.894531 11.035156 4.976562 L 11.035156 6.550781 C 11.035156 6.636719 11.105469 6.707031 11.191406 6.707031 M 13.652344 11.230469 L 15.417969 11.230469 C 15.503906 11.230469 15.574219 11.164062 15.574219 11.078125 L 15.574219 9.503906 C 15.574219 9.464844 15.558594 9.425781 15.527344 9.394531 C 15.5 9.367188 15.460938 9.351562 15.417969 9.351562 L 13.652344 9.351562 C 13.566406 9.351562 13.5 9.417969 13.5 9.503906 L 13.5 11.078125 C 13.5 11.117188 13.515625 11.15625 13.542969 11.1875 C 13.574219 11.214844 13.613281 11.230469 13.652344 11.230469 "/>
</g>
</svg>
