<?xml version="1.0" encoding="UTF-8"?>
<svg xmlns="http://www.w3.org/2000/svg" xmlns:xlink="http://www.w3.org/1999/xlink" width="25px" height="24px" viewBox="0 0 24 24" version="1.1">
<g id="surface1">
<path style=" stroke:none;fill-rule:nonzero;fill:rgb(0%,0%,0%);fill-opacity:1;" d="M 14.1875 13.738281 C 14.15625 13.730469 14.125 13.730469 14.089844 13.730469 C 14.035156 13.734375 13.980469 13.75 13.929688 13.773438 C 13.726562 13.875 13.632812 14.125 13.722656 14.339844 L 13.722656 14.34375 L 14.691406 16.757812 C 15.621094 16.148438 16.324219 15.234375 16.695312 14.167969 L 14.191406 13.734375 Z M 10.296875 14.078125 C 10.253906 13.882812 10.085938 13.746094 9.890625 13.742188 C 9.863281 13.742188 9.835938 13.742188 9.808594 13.75 L 9.804688 13.742188 L 7.324219 14.175781 C 7.695312 15.238281 8.398438 16.140625 9.320312 16.746094 L 10.28125 14.359375 L 10.273438 14.347656 C 10.308594 14.265625 10.316406 14.167969 10.296875 14.078125 Z M 12.375 15.015625 C 12.300781 14.875 12.15625 14.789062 12 14.789062 C 11.84375 14.789062 11.699219 14.875 11.625 15.019531 L 10.40625 17.289062 C 11.277344 17.59375 12.21875 17.644531 13.117188 17.429688 C 13.28125 17.390625 13.445312 17.34375 13.605469 17.289062 L 12.382812 15.015625 Z M 16.234375 9.746094 L 14.355469 11.472656 L 14.359375 11.480469 C 14.242188 11.585938 14.1875 11.75 14.222656 11.90625 C 14.257812 12.0625 14.375 12.1875 14.523438 12.226562 L 14.527344 12.238281 L 16.957031 12.960938 C 17.0625 11.835938 16.808594 10.707031 16.234375 9.746094 Z M 12.746094 9.9375 C 12.753906 10.097656 12.847656 10.242188 12.988281 10.3125 C 13.128906 10.382812 13.292969 10.367188 13.421875 10.273438 L 13.429688 10.273438 L 15.480469 8.777344 C 14.699219 7.988281 13.6875 7.488281 12.601562 7.347656 Z M 10.574219 10.28125 C 10.699219 10.375 10.867188 10.390625 11.007812 10.320312 C 11.148438 10.25 11.238281 10.109375 11.246094 9.949219 L 11.257812 9.941406 L 11.398438 7.347656 C 11.226562 7.371094 11.054688 7.398438 10.886719 7.441406 C 9.988281 7.648438 9.160156 8.109375 8.503906 8.777344 L 10.570312 10.285156 Z M 9.472656 12.242188 C 9.621094 12.199219 9.738281 12.074219 9.773438 11.917969 C 9.808594 11.761719 9.757812 11.597656 9.640625 11.492188 L 9.640625 11.480469 L 7.753906 9.746094 C 7.179688 10.710938 6.933594 11.84375 7.050781 12.96875 L 9.46875 12.25 Z M 11.304688 13.003906 L 12 13.347656 L 12.695312 13.003906 L 12.867188 12.234375 L 12.386719 11.617188 L 11.613281 11.617188 L 11.132812 12.234375 Z M 11.304688 13.003906 "/>
<path style=" stroke:none;fill-rule:nonzero;fill:rgb(0%,0%,0%);fill-opacity:1;" d="M 23.503906 14.523438 L 21.523438 5.65625 C 21.414062 5.191406 21.109375 4.804688 20.691406 4.59375 L 12.664062 0.648438 C 12.242188 0.441406 11.753906 0.441406 11.332031 0.648438 L 3.308594 4.597656 C 2.890625 4.804688 2.585938 5.195312 2.476562 5.660156 L 0.496094 14.523438 C 0.449219 14.75 0.449219 14.980469 0.496094 15.207031 C 0.511719 15.273438 0.53125 15.339844 0.554688 15.40625 C 0.589844 15.519531 0.644531 15.625 0.707031 15.726562 C 0.734375 15.769531 0.761719 15.808594 0.792969 15.851562 L 6.347656 22.960938 C 6.371094 22.988281 6.398438 23.019531 6.425781 23.046875 C 6.511719 23.140625 6.609375 23.226562 6.71875 23.296875 C 6.855469 23.386719 7.003906 23.449219 7.15625 23.492188 C 7.285156 23.527344 7.414062 23.546875 7.546875 23.546875 L 16.457031 23.546875 C 16.507812 23.546875 16.5625 23.542969 16.617188 23.535156 C 16.691406 23.527344 16.769531 23.511719 16.84375 23.492188 C 16.894531 23.476562 16.949219 23.460938 17 23.441406 C 17.039062 23.425781 17.078125 23.410156 17.117188 23.390625 C 17.175781 23.363281 17.234375 23.328125 17.285156 23.292969 C 17.425781 23.203125 17.550781 23.089844 17.65625 22.957031 L 17.824219 22.742188 L 23.207031 15.847656 C 23.3125 15.714844 23.390625 15.566406 23.449219 15.40625 C 23.472656 15.339844 23.492188 15.273438 23.503906 15.203125 C 23.554688 14.980469 23.554688 14.746094 23.503906 14.523438 Z M 15.179688 17.972656 C 15.203125 18.039062 15.226562 18.105469 15.257812 18.171875 C 15.210938 18.257812 15.195312 18.363281 15.222656 18.460938 C 15.339844 18.738281 15.480469 19 15.648438 19.246094 C 15.742188 19.375 15.828125 19.503906 15.90625 19.640625 C 15.925781 19.679688 15.949219 19.734375 15.96875 19.773438 C 16.0625 19.9375 16.058594 20.140625 15.960938 20.296875 C 15.859375 20.457031 15.679688 20.542969 15.5 20.523438 C 15.316406 20.5 15.160156 20.375 15.101562 20.195312 C 15.082031 20.160156 15.054688 20.105469 15.039062 20.070312 C 14.984375 19.921875 14.9375 19.769531 14.902344 19.617188 C 14.816406 19.328125 14.707031 19.050781 14.570312 18.785156 C 14.511719 18.703125 14.425781 18.648438 14.328125 18.632812 C 14.3125 18.605469 14.253906 18.496094 14.222656 18.441406 C 12.792969 19 11.214844 18.996094 9.789062 18.429688 L 9.683594 18.632812 C 9.605469 18.644531 9.53125 18.683594 9.476562 18.738281 C 9.3125 19.015625 9.1875 19.3125 9.101562 19.625 C 9.066406 19.777344 9.019531 19.929688 8.964844 20.078125 C 8.949219 20.113281 8.921875 20.164062 8.90625 20.203125 L 8.90625 20.207031 L 8.902344 20.207031 C 8.84375 20.382812 8.6875 20.511719 8.503906 20.53125 C 8.320312 20.554688 8.144531 20.464844 8.042969 20.308594 C 7.945312 20.148438 7.941406 19.945312 8.035156 19.78125 C 8.054688 19.742188 8.078125 19.6875 8.097656 19.648438 C 8.175781 19.511719 8.261719 19.382812 8.355469 19.253906 C 8.523438 19 8.671875 18.730469 8.789062 18.449219 C 8.804688 18.355469 8.789062 18.257812 8.746094 18.171875 L 8.835938 17.953125 C 7.519531 17.15625 6.535156 15.890625 6.066406 14.394531 L 5.855469 14.433594 C 5.773438 14.371094 5.679688 14.335938 5.578125 14.332031 C 5.292969 14.386719 5.011719 14.472656 4.742188 14.585938 C 4.601562 14.648438 4.457031 14.707031 4.3125 14.753906 C 4.277344 14.765625 4.226562 14.773438 4.1875 14.785156 C 4.183594 14.785156 4.179688 14.785156 4.175781 14.785156 C 4.175781 14.789062 4.171875 14.789062 4.171875 14.789062 C 3.996094 14.847656 3.804688 14.800781 3.675781 14.664062 C 3.546875 14.53125 3.503906 14.332031 3.5625 14.15625 C 3.621094 13.976562 3.773438 13.847656 3.957031 13.824219 L 3.964844 13.824219 L 3.96875 13.820312 C 4.007812 13.8125 4.058594 13.796875 4.097656 13.789062 C 4.25 13.769531 4.402344 13.757812 4.558594 13.753906 C 4.847656 13.734375 5.136719 13.683594 5.417969 13.605469 C 5.5 13.550781 5.570312 13.480469 5.625 13.394531 L 5.824219 13.332031 C 5.605469 11.773438 5.957031 10.183594 6.804688 8.871094 L 6.652344 8.730469 C 6.644531 8.628906 6.613281 8.527344 6.554688 8.445312 C 6.335938 8.25 6.09375 8.078125 5.839844 7.929688 C 5.703125 7.855469 5.570312 7.777344 5.441406 7.6875 C 5.414062 7.667969 5.375 7.632812 5.34375 7.605469 L 5.335938 7.601562 C 5.109375 7.433594 5.054688 7.109375 5.21875 6.871094 C 5.3125 6.753906 5.453125 6.691406 5.601562 6.699219 C 5.722656 6.703125 5.839844 6.75 5.9375 6.828125 C 5.96875 6.855469 6.011719 6.890625 6.042969 6.914062 C 6.152344 7.023438 6.257812 7.140625 6.359375 7.261719 C 6.554688 7.484375 6.773438 7.683594 7.007812 7.863281 C 7.09375 7.910156 7.195312 7.921875 7.292969 7.890625 C 7.347656 7.933594 7.40625 7.976562 7.464844 8.019531 C 8.308594 7.09375 9.402344 6.453125 10.601562 6.171875 C 10.890625 6.105469 11.179688 6.058594 11.472656 6.035156 L 11.484375 5.828125 C 11.558594 5.757812 11.613281 5.667969 11.640625 5.570312 C 11.648438 5.269531 11.632812 4.96875 11.585938 4.675781 C 11.554688 4.519531 11.535156 4.363281 11.519531 4.203125 C 11.519531 4.167969 11.519531 4.117188 11.519531 4.078125 C 11.519531 4.074219 11.519531 4.066406 11.519531 4.0625 C 11.5 3.875 11.589844 3.691406 11.746094 3.589844 C 11.902344 3.492188 12.097656 3.492188 12.253906 3.589844 C 12.410156 3.691406 12.5 3.875 12.480469 4.0625 C 12.480469 4.105469 12.484375 4.164062 12.480469 4.203125 C 12.46875 4.359375 12.445312 4.519531 12.414062 4.671875 C 12.371094 4.96875 12.351562 5.269531 12.363281 5.570312 C 12.378906 5.671875 12.4375 5.757812 12.519531 5.816406 C 12.519531 5.851562 12.527344 5.972656 12.53125 6.039062 C 14.046875 6.179688 15.464844 6.886719 16.515625 8.019531 L 16.699219 7.886719 C 16.796875 7.90625 16.898438 7.894531 16.992188 7.855469 C 17.226562 7.675781 17.441406 7.472656 17.640625 7.25 C 17.738281 7.128906 17.84375 7.015625 17.957031 6.90625 C 17.984375 6.878906 18.03125 6.84375 18.0625 6.816406 C 18.195312 6.683594 18.386719 6.640625 18.5625 6.703125 C 18.738281 6.765625 18.859375 6.925781 18.882812 7.117188 C 18.902344 7.304688 18.816406 7.488281 18.660156 7.589844 C 18.628906 7.617188 18.585938 7.65625 18.554688 7.679688 C 18.425781 7.765625 18.292969 7.847656 18.15625 7.917969 C 17.902344 8.066406 17.664062 8.238281 17.441406 8.433594 C 17.378906 8.511719 17.34375 8.613281 17.351562 8.714844 C 17.324219 8.742188 17.230469 8.828125 17.179688 8.871094 C 18.035156 10.179688 18.390625 11.761719 18.183594 13.324219 L 18.375 13.378906 C 18.425781 13.46875 18.496094 13.542969 18.582031 13.59375 C 18.867188 13.671875 19.152344 13.722656 19.445312 13.742188 C 19.597656 13.746094 19.753906 13.757812 19.90625 13.777344 C 19.945312 13.785156 20.003906 13.804688 20.046875 13.8125 C 20.226562 13.835938 20.378906 13.964844 20.4375 14.144531 C 20.496094 14.320312 20.453125 14.519531 20.324219 14.652344 C 20.195312 14.789062 20.003906 14.835938 19.832031 14.777344 L 19.824219 14.773438 C 19.820312 14.773438 19.820312 14.773438 19.816406 14.773438 C 19.777344 14.761719 19.726562 14.753906 19.691406 14.746094 C 19.542969 14.695312 19.402344 14.640625 19.261719 14.574219 C 18.988281 14.460938 18.707031 14.375 18.421875 14.320312 C 18.324219 14.316406 18.226562 14.355469 18.152344 14.421875 C 18.085938 14.410156 18.015625 14.398438 17.949219 14.386719 C 17.484375 15.890625 16.5 17.164062 15.179688 17.972656 Z M 15.179688 17.972656 "/>
</g>
</svg>
