<?xml version="1.0" encoding="UTF-8"?>
<svg xmlns="http://www.w3.org/2000/svg" xmlns:xlink="http://www.w3.org/1999/xlink" width="24px" height="24px" viewBox="0 0 24 24" version="1.1">
<g id="surface1">
<path style=" stroke:none;fill-rule:nonzero;fill:rgb(0%,0%,0%);fill-opacity:1;" d="M 23.691406 10.707031 L 18.964844 2.519531 C 18.554688 1.8125 17.546875 1.226562 16.722656 1.226562 L 7.273438 1.226562 C 6.453125 1.226562 5.441406 1.8125 5.03125 2.519531 L 0.308594 10.707031 C -0.101562 11.417969 -0.101562 12.578125 0.308594 13.289062 L 5.03125 21.476562 C 5.441406 22.1875 6.449219 22.773438 7.273438 22.773438 L 16.726562 22.773438 C 17.546875 22.773438 18.554688 22.1875 18.96875 21.480469 L 23.691406 13.289062 C 24.101562 12.578125 24.101562 11.417969 23.691406 10.707031 Z M 10.976562 5.753906 C 10.976562 5.21875 11.414062 4.78125 11.949219 4.78125 C 12.488281 4.78125 12.925781 5.21875 12.925781 5.753906 L 12.925781 11.578125 C 12.925781 12.113281 12.488281 12.550781 11.949219 12.550781 C 11.414062 12.550781 10.976562 12.113281 10.976562 11.578125 Z M 11.949219 18.183594 C 8.308594 18.183594 5.34375 15.21875 5.34375 11.578125 C 5.347656 9.488281 6.335938 7.523438 8.011719 6.273438 C 8.195312 6.132812 8.425781 6.074219 8.65625 6.109375 C 8.882812 6.144531 9.089844 6.265625 9.226562 6.453125 C 9.363281 6.636719 9.421875 6.867188 9.386719 7.09375 C 9.355469 7.324219 9.230469 7.527344 9.046875 7.664062 C 6.886719 9.269531 6.433594 12.324219 8.039062 14.484375 C 9.644531 16.644531 12.699219 17.097656 14.859375 15.492188 C 16.097656 14.574219 16.828125 13.121094 16.828125 11.578125 C 16.820312 10.027344 16.085938 8.570312 14.839844 7.652344 C 14.453125 7.367188 14.375 6.824219 14.65625 6.4375 C 14.9375 6.050781 15.484375 5.972656 15.871094 6.253906 C 17.558594 7.5 18.554688 9.476562 18.558594 11.578125 C 18.558594 15.222656 15.59375 18.183594 11.949219 18.183594 Z M 11.949219 18.183594 "/>
</g>
</svg>
