<?xml version="1.0" encoding="UTF-8"?>
<svg xmlns="http://www.w3.org/2000/svg" xmlns:xlink="http://www.w3.org/1999/xlink" width="24px" height="24px" viewBox="0 0 24 24" version="1.1">
<g id="surface1">
<path style=" stroke:none;fill-rule:evenodd;fill:rgb(0%,0%,0%);fill-opacity:1;" d="M 23.054688 20.519531 L 17.054688 2.519531 C 16.949219 2.210938 16.746094 1.941406 16.476562 1.757812 C 16.207031 1.574219 15.882812 1.484375 15.554688 1.5 L 8.445312 1.5 C 8.128906 1.5 7.824219 1.597656 7.566406 1.78125 C 7.3125 1.964844 7.121094 2.222656 7.019531 2.519531 L 0.945312 20.519531 C 0.867188 20.75 0.847656 21 0.886719 21.242188 C 0.925781 21.484375 1.023438 21.710938 1.171875 21.90625 C 1.316406 22.101562 1.511719 22.257812 1.734375 22.363281 C 1.957031 22.464844 2.199219 22.511719 2.445312 22.5 L 6.839844 22.5 C 7.152344 22.496094 7.457031 22.398438 7.707031 22.214844 C 7.960938 22.03125 8.152344 21.773438 8.25 21.480469 L 9.164062 18.808594 L 13.664062 22.214844 C 13.925781 22.40625 14.242188 22.503906 14.566406 22.5 L 21.585938 22.5 C 21.828125 22.507812 22.066406 22.457031 22.285156 22.351562 C 22.503906 22.246094 22.695312 22.089844 22.839844 21.894531 C 22.984375 21.699219 23.078125 21.472656 23.117188 21.234375 C 23.152344 20.996094 23.132812 20.75 23.054688 20.519531 Z M 14.625 21.511719 C 14.515625 21.511719 14.410156 21.472656 14.324219 21.40625 L 5.851562 15.121094 L 5.714844 15.015625 L 10.214844 15.015625 L 10.335938 14.699219 L 11.835938 10.90625 L 15.195312 20.851562 C 15.222656 20.933594 15.226562 21.023438 15.210938 21.109375 C 15.191406 21.195312 15.152344 21.273438 15.097656 21.339844 C 15.039062 21.40625 14.964844 21.457031 14.882812 21.488281 C 14.800781 21.515625 14.710938 21.523438 14.625 21.511719 Z M 21.628906 21.511719 L 16.050781 21.511719 C 16.164062 21.1875 16.164062 20.839844 16.050781 20.519531 L 9.976562 2.519531 L 15.554688 2.519531 C 15.660156 2.519531 15.765625 2.554688 15.851562 2.617188 C 15.9375 2.675781 16 2.765625 16.035156 2.863281 L 22.109375 20.863281 C 22.128906 20.941406 22.132812 21.019531 22.121094 21.09375 C 22.105469 21.171875 22.074219 21.242188 22.027344 21.304688 C 21.980469 21.367188 21.921875 21.417969 21.851562 21.453125 C 21.785156 21.488281 21.707031 21.507812 21.628906 21.511719 Z M 21.628906 21.511719 "/>
</g>
</svg>
