<svg xmlns="http://www.w3.org/2000/svg" id="svg1" version="1.1" viewBox="32.4 72 135.60000000000002 55.2" style="max-height: 500px" width="135.60000000000002" height="55.2">
  <defs id="defs1"/>
  <g id="layer1"/>
  <g transform="matrix(1.5554314,0,0,1.6548117,-86.467437,14.037549)" id="g2076" style="fill:none;stroke:#ffffff;stroke-linecap:round;stroke-linejoin:round">
    <g id="g2075" transform="translate(73.6666,61.9764)">
      <path id="path2071" transform="scale(0.0352777,-0.0352777)" style="stroke-width:0.7382in" d="M 498,183 129,343 554,504"/>
      <path id="path2072" transform="matrix(0.0352777,0,0,-0.0352777,17.78,0)" style="stroke-width:0.7382in" d="m 113,101 22,-38 35,-28.4 47,-18.8 67,9.4 66,40.9 37,59.9 16,47 85,482"/>
      <path id="path2073" transform="matrix(0.0352777,0,0,-0.0352777,34.9955,0)" style="stroke-width:0.7382in" d="m 551,97.6 -75,-50.4 -92,-31.4 -88,12.6 -72,44 -51,75.6 -19,79 13,119 28,111 57,91 76,69 78,35 85,6 73,-15 41,-32 12,-19"/>
      <path id="path2074" transform="matrix(0.0352777,0,0,-0.0352777,55.774,0)" style="stroke-width:0.7382in" d="M 34.6,-142 485,709"/>
      <path id="path2075" transform="matrix(0.0352777,0,0,-0.0352777,69.2148,0)" style="stroke-width:0.7382in" d="M 104,183 529,346 161,504"/>
    </g>
  </g>
</svg>